<svg width="397" height="150" viewBox="0 0 397 150" fill="none" xmlns="http://www.w3.org/2000/svg">
<g filter="url(#filter0_d_6_19)">
<path d="M16 16H99L91.4488 100.451L57.4077 110L23.5618 100.451L16 16V16ZM43.788 54.1836L42.8751 43.5422L82.6258 43.5526L83.5387 33.2877L31.456 33.2773L34.2105 64.642H70.278L68.9957 78.0601L57.4974 81.2081L45.8144 78.0444L45.0703 69.7823H34.7593L36.0627 86.113L57.4974 91.7919L78.7526 86.1444L81.6971 54.1888H43.788V54.1836V54.1836Z" fill="#F4452D"/>
<path d="M23.7954 100.258L16.2734 16.25H98.7266L91.2151 100.257L57.4079 109.74L23.7954 100.258ZM81.6971 53.9388H44.018L43.1475 43.7922L82.6258 43.8026L82.8546 43.8027L82.8749 43.5748L83.7878 33.3099L83.812 33.0378L83.5388 33.0377L31.456 33.0273L31.183 33.0272L31.2069 33.2991L33.9615 64.6638L33.9815 64.892H34.2105H70.0029L68.7632 77.8645L57.497 80.949L46.0477 77.8486L45.3193 69.7598L45.2988 69.5323H45.0703H34.7593H34.4885L34.5101 69.8022L35.8135 86.1329L35.8276 86.3094L35.9987 86.3547L57.4333 92.0336L57.4975 92.0506L57.5616 92.0336L78.8168 86.386L78.9855 86.3412L79.0016 86.1674L81.9461 54.2117L81.9712 53.9388H81.6971Z" stroke="black" stroke-width="0.5"/>
</g>
<path d="M29.04 133V131.42H27.44V126.74H35V131.42H33.4V133H38.24V131.42H36.66V120.58H38.24V119H33.4V120.58H35V125.16H27.44V120.58H29.04V119H24.2V120.58H25.78V131.42H24.2V133H29.04ZM46.8892 133V131.42H45.4292V120.58H48.5292V122.08H50.1092V119H39.0492V122.08H40.6292V120.58H43.7692V131.42H42.0492V133H46.8892ZM55.7502 133V131.42H54.3102V123.6C54.3102 123.493 54.3035 123.387 54.2902 123.28C54.2768 123.173 54.2635 123.067 54.2502 122.96C54.3168 123.08 54.3768 123.18 54.4302 123.26C54.4968 123.34 54.5768 123.44 54.6702 123.56L59.9702 130.5L65.0502 123.88C65.1568 123.733 65.2635 123.58 65.3702 123.42C65.4768 123.26 65.5835 123.107 65.6902 122.96C65.6768 123.067 65.6635 123.173 65.6502 123.28C65.6502 123.387 65.6435 123.493 65.6302 123.6V131.42H64.1902V133H69.0302V131.42H67.2902V120.58H69.0302V119H66.7902C65.6435 120.48 64.5035 121.96 63.3702 123.44C62.2502 124.907 61.1168 126.38 59.9702 127.86C58.8235 126.38 57.6835 124.907 56.5502 123.44C55.4302 121.96 54.2968 120.48 53.1502 119H50.9102V120.58H52.6502V131.42H50.9102V133H55.7502ZM79.8419 133V129.92H78.2619V131.42H72.6019V120.58H74.2619V119H69.8219V120.58H70.9419V131.42H69.8219V133H79.8419ZM88.0877 131.88C88.4877 131.493 88.801 131.04 89.0277 130.52C89.2677 129.987 89.3877 129.42 89.3877 128.82C89.3877 128.22 89.2677 127.66 89.0277 127.14C88.801 126.62 88.4877 126.16 88.0877 125.76C87.6877 125.373 87.221 125.073 86.6877 124.86C86.1677 124.633 85.6077 124.52 85.0077 124.52C84.9143 124.52 84.821 124.527 84.7277 124.54C84.6477 124.54 84.5677 124.547 84.4877 124.56V121.62H86.9677V122.58H88.5477V120H82.8077V127.16C83.0343 126.787 83.341 126.527 83.7277 126.38C84.1143 126.22 84.541 126.14 85.0077 126.14C85.381 126.14 85.7277 126.213 86.0477 126.36C86.381 126.493 86.6743 126.68 86.9277 126.92C87.1677 127.16 87.361 127.447 87.5077 127.78C87.6543 128.1 87.7277 128.447 87.7277 128.82C87.7277 129.193 87.6543 129.547 87.5077 129.88C87.361 130.2 87.1677 130.48 86.9277 130.72C86.6743 130.973 86.381 131.173 86.0477 131.32C85.7277 131.467 85.381 131.54 85.0077 131.54C84.661 131.54 84.3343 131.48 84.0277 131.36C83.721 131.227 83.4543 131.047 83.2277 130.82L82.0077 131.94C82.3943 132.327 82.841 132.627 83.3477 132.84C83.8677 133.053 84.421 133.16 85.0077 133.16C85.6077 133.16 86.1677 133.047 86.6877 132.82C87.221 132.593 87.6877 132.28 88.0877 131.88Z" fill="#F44631"/>
<g filter="url(#filter1_d_6_19)">
<path d="M186 16C213.058 16 235 37.0466 235 63C235 88.9534 213.058 110 186 110C158.942 110 137 88.9534 137 63C137 37.0466 158.942 16 186 16ZM176.264 78.6604C176.979 81.1843 176.901 83.5437 176.161 85.6775L175.896 86.3825C175.277 87.8036 174.403 89.1096 173.314 90.2412C170.462 93.2163 166.483 94.3396 164.778 93.3949C162.941 92.3656 163.857 88.1685 167.164 84.8174C170.722 81.2219 175.818 78.9048 175.818 78.9048V78.8954L176.264 78.6604V78.6604ZM216.728 36.1207C214.513 27.7688 200.083 25.0193 186.421 29.677C178.307 32.4453 169.502 36.7975 163.181 42.4751C155.654 49.2149 154.459 55.0899 154.949 57.5433C156.688 66.2054 169.066 71.8689 174.157 76.0707V76.0942C172.652 76.7945 161.672 82.082 159.104 87.5528C156.345 93.3103 159.535 97.4275 161.618 97.9492C168.051 99.6553 174.661 96.5392 178.219 91.4914C181.644 86.5517 181.345 80.2114 179.87 77.0953C181.894 76.5689 184.275 76.3339 187.338 76.6911C195.918 77.6264 197.633 82.8011 197.255 84.9161C196.893 87.0264 195.119 88.2578 194.506 88.6103C193.889 88.9675 193.708 89.085 193.767 89.32C193.83 89.6678 194.139 89.6678 194.624 89.6161C195.3 89.4986 199.103 87.8536 199.284 83.8492C199.465 78.8014 194.443 73.1661 185.5 73.2742C181.825 73.34 179.493 73.6314 177.842 74.28C177.73 74.1143 177.583 73.9733 177.41 73.8664C171.898 68.1653 161.667 64.1703 162.098 56.5939C162.22 53.8303 163.259 46.55 181.698 37.7375C196.829 30.5089 208.898 32.5111 210.985 36.915C213.974 43.1942 204.547 54.8925 188.808 56.5939C182.805 57.2425 179.684 55.01 178.88 54.1828C178.028 53.2992 177.91 53.2428 177.601 53.4261C177.107 53.6611 177.415 54.4225 177.601 54.8972C178.091 56.0675 179.988 58.1308 183.3 59.1836C186.176 60.0672 193.218 60.5889 201.675 57.4211C211.166 53.9008 218.575 44.0825 216.434 35.8575L216.728 36.1207V36.1207Z" fill="#F55BD3"/>
<path d="M176.104 79.027C176.718 81.3907 176.618 83.595 175.926 85.5927C175.925 85.5937 175.925 85.5946 175.925 85.5956L175.664 86.2886C175.058 87.6798 174.201 88.9589 173.134 90.0678L173.133 90.0682C171.736 91.5265 170.062 92.5295 168.535 93.0514C166.992 93.5787 165.658 93.5964 164.9 93.1765C164.519 92.963 164.266 92.5796 164.156 92.0416C164.045 91.4996 164.084 90.814 164.284 90.0394C164.684 88.4915 165.715 86.6423 167.342 84.9932C169.1 83.2164 171.244 81.7507 172.954 80.7273C173.807 80.2162 174.551 79.8169 175.08 79.5455C175.345 79.4098 175.556 79.3062 175.7 79.2367C175.773 79.2019 175.828 79.1757 175.866 79.1582L175.908 79.1386L175.918 79.1338L175.921 79.1327L175.921 79.1324L175.921 79.1324L176.068 79.0658V79.0462L176.104 79.027ZM186.341 29.4404L186.341 29.4404C178.208 32.2149 169.369 36.5809 163.014 42.2889C155.453 49.0595 154.189 55.0174 154.704 57.5923L154.704 57.5925C155.593 62.0199 159.19 65.6497 163.144 68.6781C165.121 70.1922 167.201 71.5663 169.1 72.8201L169.114 72.8299C170.88 73.9958 172.481 75.0538 173.708 76.0295C172.587 76.5658 169.794 77.959 166.894 79.8243C165.26 80.8753 163.588 82.0791 162.16 83.3673C160.735 84.6528 159.54 86.0351 158.878 87.446C157.471 90.3833 157.573 92.9238 158.313 94.8059C159.045 96.6701 160.414 97.9042 161.555 98.1912C168.105 99.9276 174.816 96.7539 178.423 91.6354L178.424 91.6339C180.167 89.1201 180.96 86.2543 181.131 83.6258C181.293 81.1476 180.903 78.8627 180.221 77.2651C182.151 76.7981 184.42 76.6025 187.309 76.9394L187.311 76.9396C195.783 77.8632 197.355 82.9332 197.009 84.8722L197.009 84.8738C196.666 86.8693 194.978 88.0503 194.382 88.3936L194.381 88.3939C194.082 88.5668 193.855 88.7 193.716 88.825C193.642 88.8912 193.574 88.9713 193.536 89.0734C193.497 89.1779 193.5 89.2795 193.522 89.3727C193.545 89.4924 193.593 89.6029 193.677 89.692C193.763 89.7829 193.869 89.8332 193.976 89.8602C194.172 89.9101 194.416 89.8896 194.65 89.8647L194.659 89.8638L194.667 89.8624C194.872 89.8268 195.262 89.689 195.726 89.451C196.196 89.2098 196.758 88.857 197.304 88.3783C198.398 87.4199 199.439 85.9482 199.534 83.8605L199.534 83.8582C199.722 78.628 194.539 72.9149 185.497 73.0242L185.496 73.0242C181.943 73.0878 179.61 73.3615 177.926 73.9803C177.823 73.8614 177.703 73.7573 177.569 73.6711C176.18 72.2387 174.502 70.9168 172.781 69.6278C172.351 69.3055 171.919 68.9855 171.488 68.6663C170.179 67.698 168.881 66.7368 167.685 65.7413C164.499 63.0887 162.139 60.2667 162.347 56.6081L162.348 56.605C162.407 55.2627 162.685 52.8059 165.225 49.589C167.773 46.3625 172.606 42.3599 181.806 37.9631C189.341 34.3631 196.102 33.0678 201.226 33.214C203.788 33.2871 205.934 33.7204 207.56 34.3998C209.19 35.0808 210.274 35.9978 210.759 37.0221L210.759 37.0224C211.47 38.5158 211.453 40.3525 210.758 42.3163C210.064 44.2796 208.698 46.3528 206.743 48.2937C202.834 52.1746 196.596 55.5005 188.781 56.3453C182.853 56.9858 179.809 54.7795 179.06 54.0086C178.847 53.7878 178.676 53.6147 178.535 53.4832C178.396 53.3535 178.275 53.2537 178.163 53.1883C178.045 53.1199 177.922 53.0806 177.787 53.094C177.666 53.1059 177.564 53.158 177.483 53.2056C177.301 53.2953 177.187 53.4391 177.13 53.6084C177.074 53.7716 177.076 53.9471 177.098 54.106C177.14 54.4064 177.267 54.729 177.356 54.9568C177.36 54.9676 177.365 54.9781 177.369 54.9885L177.369 54.9885L177.371 54.9938C177.895 56.2461 179.858 58.352 183.224 59.4219L183.227 59.4226C186.162 60.3242 193.26 60.84 201.762 57.6554C206.556 55.8773 210.822 52.5108 213.621 48.5478C216.348 44.687 217.702 40.232 216.754 36.1138L216.97 36.0566C215.826 31.7449 211.547 28.9323 205.917 27.7754C200.276 26.6161 193.208 27.0992 186.341 29.4404ZM186 16.25C212.93 16.25 234.75 37.1944 234.75 63C234.75 88.8056 212.93 109.75 186 109.75C159.07 109.75 137.25 88.8056 137.25 63C137.25 37.1944 159.07 16.25 186 16.25Z" stroke="black" stroke-width="0.5"/>
</g>
<path d="M172.46 132.12C172.833 131.773 173.127 131.36 173.34 130.88C173.567 130.4 173.68 129.86 173.68 129.26C173.68 128.287 173.507 127.52 173.16 126.96C172.813 126.4 172.36 125.987 171.8 125.72C171.187 125.427 170.547 125.187 169.88 125C169.213 124.8 168.64 124.573 168.16 124.32C167.853 124.147 167.607 123.94 167.42 123.7C167.233 123.447 167.14 123.12 167.14 122.72C167.14 122.427 167.18 122.153 167.26 121.9C167.353 121.633 167.487 121.4 167.66 121.2C167.847 120.987 168.087 120.82 168.38 120.7C168.673 120.567 169.02 120.5 169.42 120.5C169.82 120.5 170.187 120.54 170.52 120.62C170.853 120.7 171.147 120.793 171.4 120.9V122.08H172.98V120.12C172.66 119.853 172.333 119.64 172 119.48C171.68 119.32 171.367 119.2 171.06 119.12C170.753 119.04 170.46 118.987 170.18 118.96C169.9 118.933 169.64 118.92 169.4 118.92C168.667 118.92 168.047 119.033 167.54 119.26C167.033 119.487 166.627 119.78 166.32 120.14C166.013 120.5 165.793 120.9 165.66 121.34C165.527 121.78 165.467 122.22 165.48 122.66C165.493 123.487 165.66 124.127 165.98 124.58C166.313 125.033 166.727 125.387 167.22 125.64C167.7 125.893 168.22 126.093 168.78 126.24C169.34 126.387 169.86 126.56 170.34 126.76C170.647 126.907 170.913 127.067 171.14 127.24C171.38 127.4 171.587 127.62 171.76 127.9C171.867 128.073 171.933 128.28 171.96 128.52C172 128.76 172.02 129 172.02 129.24C172.02 129.627 171.947 129.967 171.8 130.26C171.653 130.553 171.46 130.8 171.22 131C170.967 131.187 170.68 131.333 170.36 131.44C170.04 131.533 169.707 131.58 169.36 131.58C168.76 131.58 168.22 131.487 167.74 131.3C167.26 131.1 166.847 130.867 166.5 130.6V128.82H164.92V131.14C165.093 131.407 165.333 131.66 165.64 131.9C165.96 132.14 166.32 132.353 166.72 132.54C167.12 132.727 167.56 132.88 168.04 133C168.52 133.107 169.013 133.16 169.52 133.16C170.08 133.16 170.613 133.073 171.12 132.9C171.627 132.713 172.073 132.453 172.46 132.12ZM178.591 133V131.42H177.451C177.824 130.54 178.104 129.88 178.291 129.44C178.477 129 178.757 128.34 179.131 127.46H183.531C183.811 128.127 184.084 128.787 184.351 129.44C184.631 130.093 184.911 130.753 185.191 131.42H184.071V133H188.511V131.42H186.871C185.951 129.22 185.024 127.047 184.091 124.9C183.171 122.74 182.251 120.56 181.331 118.36C180.411 120.56 179.484 122.74 178.551 124.9C177.631 127.047 176.711 129.22 175.791 131.42H174.151V133H178.591ZM181.111 122.7C181.124 122.66 181.144 122.593 181.171 122.5C181.211 122.407 181.257 122.253 181.311 122.04L181.511 122.7L182.851 125.88H179.811C179.997 125.413 180.197 124.9 180.411 124.34C180.637 123.767 180.871 123.22 181.111 122.7ZM196.572 132.12C196.946 131.773 197.239 131.36 197.452 130.88C197.679 130.4 197.792 129.86 197.792 129.26C197.792 128.287 197.619 127.52 197.272 126.96C196.926 126.4 196.472 125.987 195.912 125.72C195.299 125.427 194.659 125.187 193.992 125C193.326 124.8 192.752 124.573 192.272 124.32C191.966 124.147 191.719 123.94 191.532 123.7C191.346 123.447 191.252 123.12 191.252 122.72C191.252 122.427 191.292 122.153 191.372 121.9C191.466 121.633 191.599 121.4 191.772 121.2C191.959 120.987 192.199 120.82 192.492 120.7C192.786 120.567 193.132 120.5 193.532 120.5C193.932 120.5 194.299 120.54 194.632 120.62C194.966 120.7 195.259 120.793 195.512 120.9V122.08H197.092V120.12C196.772 119.853 196.446 119.64 196.112 119.48C195.792 119.32 195.479 119.2 195.172 119.12C194.866 119.04 194.572 118.987 194.292 118.96C194.012 118.933 193.752 118.92 193.512 118.92C192.779 118.92 192.159 119.033 191.652 119.26C191.146 119.487 190.739 119.78 190.432 120.14C190.126 120.5 189.906 120.9 189.772 121.34C189.639 121.78 189.579 122.22 189.592 122.66C189.606 123.487 189.772 124.127 190.092 124.58C190.426 125.033 190.839 125.387 191.332 125.64C191.812 125.893 192.332 126.093 192.892 126.24C193.452 126.387 193.972 126.56 194.452 126.76C194.759 126.907 195.026 127.067 195.252 127.24C195.492 127.4 195.699 127.62 195.872 127.9C195.979 128.073 196.046 128.28 196.072 128.52C196.112 128.76 196.132 129 196.132 129.24C196.132 129.627 196.059 129.967 195.912 130.26C195.766 130.553 195.572 130.8 195.332 131C195.079 131.187 194.792 131.333 194.472 131.44C194.152 131.533 193.819 131.58 193.472 131.58C192.872 131.58 192.332 131.487 191.852 131.3C191.372 131.1 190.959 130.867 190.612 130.6V128.82H189.032V131.14C189.206 131.407 189.446 131.66 189.752 131.9C190.072 132.14 190.432 132.353 190.832 132.54C191.232 132.727 191.672 132.88 192.152 133C192.632 133.107 193.126 133.16 193.632 133.16C194.192 133.16 194.726 133.073 195.232 132.9C195.739 132.713 196.186 132.453 196.572 132.12ZM205.523 132.12C205.897 131.773 206.19 131.36 206.403 130.88C206.63 130.4 206.743 129.86 206.743 129.26C206.743 128.287 206.57 127.52 206.223 126.96C205.877 126.4 205.423 125.987 204.863 125.72C204.25 125.427 203.61 125.187 202.943 125C202.277 124.8 201.703 124.573 201.223 124.32C200.917 124.147 200.67 123.94 200.483 123.7C200.297 123.447 200.203 123.12 200.203 122.72C200.203 122.427 200.243 122.153 200.323 121.9C200.417 121.633 200.55 121.4 200.723 121.2C200.91 120.987 201.15 120.82 201.443 120.7C201.737 120.567 202.083 120.5 202.483 120.5C202.883 120.5 203.25 120.54 203.583 120.62C203.917 120.7 204.21 120.793 204.463 120.9V122.08H206.043V120.12C205.723 119.853 205.397 119.64 205.063 119.48C204.743 119.32 204.43 119.2 204.123 119.12C203.817 119.04 203.523 118.987 203.243 118.96C202.963 118.933 202.703 118.92 202.463 118.92C201.73 118.92 201.11 119.033 200.603 119.26C200.097 119.487 199.69 119.78 199.383 120.14C199.077 120.5 198.857 120.9 198.723 121.34C198.59 121.78 198.53 122.22 198.543 122.66C198.557 123.487 198.723 124.127 199.043 124.58C199.377 125.033 199.79 125.387 200.283 125.64C200.763 125.893 201.283 126.093 201.843 126.24C202.403 126.387 202.923 126.56 203.403 126.76C203.71 126.907 203.977 127.067 204.203 127.24C204.443 127.4 204.65 127.62 204.823 127.9C204.93 128.073 204.997 128.28 205.023 128.52C205.063 128.76 205.083 129 205.083 129.24C205.083 129.627 205.01 129.967 204.863 130.26C204.717 130.553 204.523 130.8 204.283 131C204.03 131.187 203.743 131.333 203.423 131.44C203.103 131.533 202.77 131.58 202.423 131.58C201.823 131.58 201.283 131.487 200.803 131.3C200.323 131.1 199.91 130.867 199.563 130.6V128.82H197.983V131.14C198.157 131.407 198.397 131.66 198.703 131.9C199.023 132.14 199.383 132.353 199.783 132.54C200.183 132.727 200.623 132.88 201.103 133C201.583 133.107 202.077 133.16 202.583 133.16C203.143 133.16 203.677 133.073 204.183 132.9C204.69 132.713 205.137 132.453 205.523 132.12Z" fill="#F55BD3"/>
<g filter="url(#filter2_d_6_19)">
<path d="M281.5 16H375.5V110H281.5V16ZM367.797 87.581C367.113 83.2936 364.319 79.6902 356.037 76.3271C353.154 74.9746 349.953 74.0398 348.992 71.8673C348.637 70.5722 348.585 69.8724 348.814 69.1048C349.405 66.5772 352.402 65.82 354.752 66.5198C356.282 66.9898 357.692 68.1648 358.575 70.05C362.622 67.4023 362.622 67.4023 365.447 65.6424C364.387 64.0027 363.86 63.2872 363.155 62.5822C360.685 59.8249 357.395 58.4149 352.052 58.535L349.295 58.8849C346.647 59.5324 344.12 60.9477 342.595 62.8224C338.13 67.8776 339.42 76.6874 344.825 80.3378C350.167 84.3328 357.99 85.2101 358.987 88.9701C359.927 93.5552 355.582 95.0227 351.285 94.4952C348.115 93.785 346.35 92.2027 344.412 89.2626L337.247 93.3777C338.067 95.2524 339.007 96.0776 340.417 97.7226C347.232 104.595 364.272 104.245 367.327 93.785C367.437 93.4351 368.267 91.0277 367.62 87.3251L367.797 87.581V87.581ZM332.615 59.2034H323.81C323.81 66.7913 323.774 74.3374 323.774 81.941C323.774 86.7663 324.019 91.1948 323.231 92.5578C321.941 95.2577 318.604 94.913 317.095 94.4326C315.544 93.6701 314.755 92.61 313.841 91.0851C313.596 90.6778 313.413 90.3227 313.345 90.3227L306.201 94.7302C307.397 97.2003 309.141 99.3206 311.392 100.668C314.739 102.668 319.236 103.316 323.946 102.261C327.017 101.373 329.665 99.5503 331.038 96.7303C333.043 93.0904 332.615 88.6202 332.599 83.6278C332.641 75.5803 332.599 67.5277 332.599 59.4228L332.615 59.2034Z" fill="#FFDB58"/>
<path d="M365.657 65.5067C364.598 63.8684 364.059 63.1336 363.336 62.4102C360.807 59.5899 357.441 58.1638 352.047 58.2851L352.034 58.2854L352.021 58.287L349.263 58.6369L349.249 58.6387L349.235 58.642C346.551 59.2987 343.972 60.7358 342.404 62.6607C340.118 65.2518 339.313 68.7928 339.761 72.14C340.208 75.4862 341.911 78.6691 344.68 80.5416C346.948 82.2362 349.658 83.3766 352.083 84.3972C352.546 84.592 352.999 84.7824 353.436 84.9715C354.81 85.5656 356.027 86.144 356.961 86.8013C357.892 87.4564 358.514 88.1706 358.744 89.0274C358.969 90.13 358.873 91.0247 358.556 91.7408C358.239 92.4584 357.69 93.0182 356.975 93.4337C355.537 94.2681 353.444 94.5064 351.327 94.2486C349.78 93.9004 348.585 93.3425 347.541 92.5188C346.491 91.6905 345.583 90.5846 344.621 89.125L344.491 88.9287L344.288 89.0458L337.123 93.1609L336.928 93.2725L337.018 93.4778C337.694 95.0223 338.458 95.8832 339.457 97.0075C339.7 97.2801 339.956 97.5682 340.227 97.8853L340.233 97.8921L340.24 97.8986C343.714 101.403 349.761 103.043 355.306 102.502C360.852 101.961 365.998 99.2238 367.566 93.8578C367.57 93.8466 367.574 93.8335 367.579 93.8185C367.729 93.3491 368.463 91.046 367.913 87.5626L368.044 87.5416C367.694 85.3504 366.803 83.3292 364.945 81.4325C363.094 79.5425 360.292 77.7857 356.137 76.098C355.555 75.8249 354.959 75.5686 354.376 75.3174C354.234 75.2566 354.094 75.1961 353.954 75.1357C353.234 74.8241 352.541 74.5158 351.91 74.1835C350.648 73.5187 349.676 72.7798 349.228 71.783C348.882 70.5156 348.845 69.8736 349.054 69.1765L349.056 69.1691L349.058 69.1616C349.33 67.9956 350.155 67.231 351.211 66.8362C352.272 66.4394 353.552 66.4235 354.68 66.7591C356.136 67.2068 357.493 68.3295 358.348 70.156L358.471 70.417L358.712 70.2592C361.109 68.6911 362.085 68.0523 363.07 67.4265C363.747 66.9959 364.429 66.5714 365.579 65.8546L365.795 65.7202L365.657 65.5067ZM332.864 59.2213L332.884 58.9534H332.615H323.81H323.56V59.2034C323.56 62.9947 323.551 66.7756 323.542 70.5588L323.542 70.5657C323.533 74.3512 323.524 78.1389 323.524 81.941C323.524 82.9092 323.534 83.8576 323.543 84.7671C323.557 86.1346 323.57 87.4145 323.548 88.5428C323.53 89.4799 323.487 90.3016 323.4 90.9705C323.313 91.647 323.185 92.1373 323.014 92.4326L323.009 92.4411L323.005 92.45C322.405 93.7062 321.333 94.2589 320.205 94.441C319.079 94.6229 317.918 94.4293 317.188 94.1999C315.714 93.4705 314.959 92.4633 314.056 90.9566L314.055 90.9561C313.995 90.8561 313.939 90.759 313.886 90.6684L313.879 90.6564C313.829 90.5711 313.782 90.4904 313.74 90.4213C313.697 90.3506 313.654 90.2834 313.615 90.2321C313.596 90.207 313.571 90.1769 313.541 90.1508C313.522 90.1343 313.451 90.0727 313.345 90.0727H313.274L313.214 90.1099L306.07 94.5175L305.878 94.636L305.976 94.8392C307.188 97.3431 308.962 99.5049 311.264 100.882L311.264 100.882C314.675 102.92 319.238 103.571 324.001 102.505L324.008 102.503L324.016 102.501C327.133 101.6 329.847 99.7421 331.26 96.8455C332.285 94.9818 332.683 92.9149 332.826 90.7024C332.926 89.1458 332.901 87.5 332.874 85.7951C332.863 85.0823 332.852 84.3591 332.849 83.6278C332.877 78.2665 332.868 72.9021 332.859 67.5225C332.854 64.8299 332.849 62.1335 332.849 59.4317L332.864 59.2213ZM281.75 16.25H375.25V109.75H281.75V16.25Z" stroke="black" stroke-width="0.5"/>
</g>
<path d="M277.14 134.64C277.567 134.24 277.9 133.753 278.14 133.18C278.393 132.607 278.52 131.947 278.52 131.2V119H273.7V120.58H276.86V131.14C276.86 131.633 276.78 132.073 276.62 132.46C276.46 132.847 276.247 133.167 275.98 133.42C275.7 133.687 275.36 133.893 274.96 134.04C274.573 134.187 274.153 134.273 273.7 134.3V135.88C274.38 135.867 275.013 135.753 275.6 135.54C276.2 135.327 276.713 135.027 277.14 134.64ZM283.751 133V131.42H282.611C282.984 130.54 283.264 129.88 283.451 129.44C283.638 129 283.918 128.34 284.291 127.46H288.691C288.971 128.127 289.244 128.787 289.511 129.44C289.791 130.093 290.071 130.753 290.351 131.42H289.231V133H293.671V131.42H292.031C291.111 129.22 290.184 127.047 289.251 124.9C288.331 122.74 287.411 120.56 286.491 118.36C285.571 120.56 284.644 122.74 283.711 124.9C282.791 127.047 281.871 129.22 280.951 131.42H279.311V133H283.751ZM286.271 122.7C286.284 122.66 286.304 122.593 286.331 122.5C286.371 122.407 286.418 122.253 286.471 122.04L286.671 122.7L288.011 125.88H284.971C285.158 125.413 285.358 124.9 285.571 124.34C285.798 123.767 286.031 123.22 286.271 122.7ZM307.293 120.58H309.273V119H304.433V120.58H305.613C304.999 122.047 304.386 123.507 303.773 124.96C303.173 126.4 302.559 127.847 301.933 129.3L301.753 129.96L301.573 129.3C300.946 127.847 300.326 126.393 299.713 124.94C299.113 123.487 298.499 122.033 297.873 120.58H299.313V119H294.473V120.58H296.213C297.133 122.78 298.053 124.96 298.973 127.12C299.906 129.267 300.833 131.44 301.753 133.64C302.673 131.44 303.593 129.267 304.513 127.12C305.446 124.96 306.373 122.78 307.293 120.58ZM314.504 133V131.42H313.364C313.737 130.54 314.017 129.88 314.204 129.44C314.391 129 314.671 128.34 315.044 127.46H319.444C319.724 128.127 319.997 128.787 320.264 129.44C320.544 130.093 320.824 130.753 321.104 131.42H319.984V133H324.424V131.42H322.784C321.864 129.22 320.937 127.047 320.004 124.9C319.084 122.74 318.164 120.56 317.244 118.36C316.324 120.56 315.397 122.74 314.464 124.9C313.544 127.047 312.624 129.22 311.704 131.42H310.064V133H314.504ZM317.024 122.7C317.037 122.66 317.057 122.593 317.084 122.5C317.124 122.407 317.171 122.253 317.224 122.04L317.424 122.7L318.764 125.88H315.724C315.911 125.413 316.111 124.9 316.324 124.34C316.551 123.767 316.784 123.22 317.024 122.7ZM332.486 132.12C332.859 131.773 333.152 131.36 333.366 130.88C333.592 130.4 333.706 129.86 333.706 129.26C333.706 128.287 333.532 127.52 333.186 126.96C332.839 126.4 332.386 125.987 331.826 125.72C331.212 125.427 330.572 125.187 329.906 125C329.239 124.8 328.666 124.573 328.186 124.32C327.879 124.147 327.632 123.94 327.446 123.7C327.259 123.447 327.166 123.12 327.166 122.72C327.166 122.427 327.206 122.153 327.286 121.9C327.379 121.633 327.512 121.4 327.686 121.2C327.872 120.987 328.112 120.82 328.406 120.7C328.699 120.567 329.046 120.5 329.446 120.5C329.846 120.5 330.212 120.54 330.546 120.62C330.879 120.7 331.172 120.793 331.426 120.9V122.08H333.006V120.12C332.686 119.853 332.359 119.64 332.026 119.48C331.706 119.32 331.392 119.2 331.086 119.12C330.779 119.04 330.486 118.987 330.206 118.96C329.926 118.933 329.666 118.92 329.426 118.92C328.692 118.92 328.072 119.033 327.566 119.26C327.059 119.487 326.652 119.78 326.346 120.14C326.039 120.5 325.819 120.9 325.686 121.34C325.552 121.78 325.492 122.22 325.506 122.66C325.519 123.487 325.686 124.127 326.006 124.58C326.339 125.033 326.752 125.387 327.246 125.64C327.726 125.893 328.246 126.093 328.806 126.24C329.366 126.387 329.886 126.56 330.366 126.76C330.672 126.907 330.939 127.067 331.166 127.24C331.406 127.4 331.612 127.62 331.786 127.9C331.892 128.073 331.959 128.28 331.986 128.52C332.026 128.76 332.046 129 332.046 129.24C332.046 129.627 331.972 129.967 331.826 130.26C331.679 130.553 331.486 130.8 331.246 131C330.992 131.187 330.706 131.333 330.386 131.44C330.066 131.533 329.732 131.58 329.386 131.58C328.786 131.58 328.246 131.487 327.766 131.3C327.286 131.1 326.872 130.867 326.526 130.6V128.82H324.946V131.14C325.119 131.407 325.359 131.66 325.666 131.9C325.986 132.14 326.346 132.353 326.746 132.54C327.146 132.727 327.586 132.88 328.066 133C328.546 133.107 329.039 133.16 329.546 133.16C330.106 133.16 330.639 133.073 331.146 132.9C331.652 132.713 332.099 132.453 332.486 132.12ZM344.957 132.16L344.057 130.84C343.643 131.08 343.203 131.267 342.737 131.4C342.283 131.52 341.81 131.58 341.317 131.58C340.557 131.58 339.843 131.433 339.177 131.14C338.523 130.847 337.95 130.447 337.457 129.94C336.95 129.447 336.55 128.86 336.257 128.18C335.977 127.5 335.837 126.78 335.837 126.02C335.837 125.26 335.977 124.54 336.257 123.86C336.55 123.18 336.95 122.58 337.457 122.06C337.95 121.553 338.523 121.153 339.177 120.86C339.843 120.567 340.557 120.42 341.317 120.42C341.677 120.42 342.03 120.46 342.377 120.54C342.723 120.607 343.063 120.713 343.397 120.86V122.08H344.977V119.84C344.43 119.52 343.85 119.273 343.237 119.1C342.637 118.927 341.997 118.84 341.317 118.84C340.33 118.84 339.403 119.033 338.537 119.42C337.67 119.793 336.917 120.3 336.277 120.94C335.623 121.593 335.11 122.36 334.737 123.24C334.363 124.107 334.177 125.033 334.177 126.02C334.177 127.007 334.363 127.933 334.737 128.8C335.11 129.667 335.623 130.42 336.277 131.06C336.917 131.713 337.67 132.227 338.537 132.6C339.403 132.973 340.33 133.16 341.317 133.16C341.997 133.16 342.637 133.073 343.237 132.9C343.85 132.713 344.423 132.467 344.957 132.16ZM350.624 133V131.42H348.344V126.76H349.184C349.37 126.76 349.51 126.76 349.604 126.76C349.71 126.747 349.857 126.74 350.044 126.74L352.984 133H355.904V131.42H354.024L351.784 126.62C352.744 126.407 353.47 125.967 353.964 125.3C354.47 124.633 354.724 123.8 354.724 122.8C354.724 122.12 354.564 121.54 354.244 121.06C353.924 120.58 353.524 120.187 353.044 119.88C352.564 119.573 352.044 119.353 351.484 119.22C350.937 119.073 350.437 119 349.984 119H345.784V120.58H346.684V131.42H345.784V133H350.624ZM348.344 120.58H350.104C350.517 120.58 350.904 120.64 351.264 120.76C351.637 120.88 351.957 121.04 352.224 121.24C352.477 121.453 352.677 121.693 352.824 121.96C352.984 122.227 353.064 122.507 353.064 122.8C353.064 123.053 353.017 123.32 352.924 123.6C352.83 123.88 352.67 124.133 352.444 124.36C352.217 124.587 351.91 124.78 351.524 124.94C351.15 125.087 350.67 125.16 350.084 125.16H348.344V120.58ZM361.547 133V131.42H359.947V120.58H361.547V119H356.707V120.58H358.287V131.42H356.707V133H361.547ZM367.177 133V131.42H364.897V126.76H367.077C368.437 126.76 369.477 126.407 370.197 125.7C370.917 124.98 371.277 124.013 371.277 122.8C371.277 122.12 371.117 121.54 370.797 121.06C370.477 120.58 370.077 120.187 369.597 119.88C369.117 119.573 368.597 119.353 368.037 119.22C367.491 119.073 366.991 119 366.537 119H362.337V120.58H363.237V131.42H362.337V133H367.177ZM364.897 120.58H366.657C367.071 120.58 367.457 120.64 367.817 120.76C368.191 120.88 368.511 121.04 368.777 121.24C369.031 121.453 369.231 121.693 369.377 121.96C369.537 122.227 369.617 122.507 369.617 122.8C369.617 123.053 369.571 123.32 369.477 123.6C369.384 123.88 369.224 124.133 368.997 124.36C368.771 124.587 368.464 124.78 368.077 124.94C367.704 125.087 367.224 125.16 366.637 125.16H364.897V120.58ZM379.91 133V131.42H378.45V120.58H381.55V122.08H383.13V119H372.07V122.08H373.65V120.58H376.79V131.42H375.07V133H379.91Z" fill="#FFDB58"/>
<defs>
<filter id="filter0_d_6_19" x="0" y="0" width="115" height="126" filterUnits="userSpaceOnUse" color-interpolation-filters="sRGB">
<feFlood flood-opacity="0" result="BackgroundImageFix"/>
<feColorMatrix in="SourceAlpha" type="matrix" values="0 0 0 0 0 0 0 0 0 0 0 0 0 0 0 0 0 0 127 0" result="hardAlpha"/>
<feOffset/>
<feGaussianBlur stdDeviation="8"/>
<feComposite in2="hardAlpha" operator="out"/>
<feColorMatrix type="matrix" values="0 0 0 0 0.956863 0 0 0 0 0.270588 0 0 0 0 0.176471 0 0 0 0.25 0"/>
<feBlend mode="normal" in2="BackgroundImageFix" result="effect1_dropShadow_6_19"/>
<feBlend mode="normal" in="SourceGraphic" in2="effect1_dropShadow_6_19" result="shape"/>
</filter>
<filter id="filter1_d_6_19" x="123" y="2" width="126" height="122" filterUnits="userSpaceOnUse" color-interpolation-filters="sRGB">
<feFlood flood-opacity="0" result="BackgroundImageFix"/>
<feColorMatrix in="SourceAlpha" type="matrix" values="0 0 0 0 0 0 0 0 0 0 0 0 0 0 0 0 0 0 127 0" result="hardAlpha"/>
<feOffset/>
<feGaussianBlur stdDeviation="7"/>
<feComposite in2="hardAlpha" operator="out"/>
<feColorMatrix type="matrix" values="0 0 0 0 0.960784 0 0 0 0 0.356863 0 0 0 0 0.827451 0 0 0 1 0"/>
<feBlend mode="normal" in2="BackgroundImageFix" result="effect1_dropShadow_6_19"/>
<feBlend mode="normal" in="SourceGraphic" in2="effect1_dropShadow_6_19" result="shape"/>
</filter>
<filter id="filter2_d_6_19" x="267.5" y="2" width="122" height="122" filterUnits="userSpaceOnUse" color-interpolation-filters="sRGB">
<feFlood flood-opacity="0" result="BackgroundImageFix"/>
<feColorMatrix in="SourceAlpha" type="matrix" values="0 0 0 0 0 0 0 0 0 0 0 0 0 0 0 0 0 0 127 0" result="hardAlpha"/>
<feOffset/>
<feGaussianBlur stdDeviation="7"/>
<feComposite in2="hardAlpha" operator="out"/>
<feColorMatrix type="matrix" values="0 0 0 0 1 0 0 0 0 0.858823 0 0 0 0 0.345098 0 0 0 1 0"/>
<feBlend mode="normal" in2="BackgroundImageFix" result="effect1_dropShadow_6_19"/>
<feBlend mode="normal" in="SourceGraphic" in2="effect1_dropShadow_6_19" result="shape"/>
</filter>
</defs>
</svg>
